<mxfile host="app.diagrams.net" modified="2020-10-03T21:16:36.308Z" agent="5.0 (X11; Linux x86_64) AppleWebKit/537.36 (KHTML, like Gecko) Chrome/85.0.4183.121 Safari/537.36" etag="Rj_Zz8nKSxodmk9-gf-L" version="13.7.7" type="github" pages="4">
  <diagram id="TW4SknuELug2uuoj7dxj" name="mutex-spinlock">
    <mxGraphModel dx="1422" dy="806" grid="1" gridSize="10" guides="1" tooltips="1" connect="1" arrows="1" fold="1" page="1" pageScale="1" pageWidth="1169" pageHeight="827" math="0" shadow="0">
      <root>
        <mxCell id="0" />
        <mxCell id="1" parent="0" />
        <mxCell id="WNs4VfGeRKVJ7KzrN_8F-3" value="" style="rounded=0;whiteSpace=wrap;html=1;fillColor=#d5e8d4;strokeColor=#82b366;" parent="1" vertex="1">
          <mxGeometry x="800" y="301" width="280" height="40" as="geometry" />
        </mxCell>
        <mxCell id="WNs4VfGeRKVJ7KzrN_8F-4" value="" style="rounded=0;whiteSpace=wrap;html=1;fillColor=#d5e8d4;strokeColor=#82b366;" parent="1" vertex="1">
          <mxGeometry x="80" y="238" width="280" height="40" as="geometry" />
        </mxCell>
        <mxCell id="WNs4VfGeRKVJ7KzrN_8F-6" value="" style="rounded=0;whiteSpace=wrap;html=1;fillColor=#ffe6cc;strokeColor=#d79b00;" parent="1" vertex="1">
          <mxGeometry x="800" y="238" width="280" height="40" as="geometry" />
        </mxCell>
        <mxCell id="WNs4VfGeRKVJ7KzrN_8F-7" value="" style="rounded=0;whiteSpace=wrap;html=1;fillColor=#ffe6cc;strokeColor=#d79b00;" parent="1" vertex="1">
          <mxGeometry x="80" y="301" width="280" height="40" as="geometry" />
        </mxCell>
        <mxCell id="WNs4VfGeRKVJ7KzrN_8F-8" value="" style="rounded=0;whiteSpace=wrap;html=1;strokeColor=#82b366;fillColor=#97D077;" parent="1" vertex="1">
          <mxGeometry x="80" y="364" width="280" height="40" as="geometry" />
        </mxCell>
        <mxCell id="WNs4VfGeRKVJ7KzrN_8F-9" value="" style="whiteSpace=wrap;html=1;aspect=fixed;" parent="1" vertex="1">
          <mxGeometry x="560" y="238" width="40" height="40" as="geometry" />
        </mxCell>
        <mxCell id="WNs4VfGeRKVJ7KzrN_8F-10" value="" style="whiteSpace=wrap;html=1;aspect=fixed;" parent="1" vertex="1">
          <mxGeometry x="560" y="301" width="40" height="40" as="geometry" />
        </mxCell>
        <mxCell id="WNs4VfGeRKVJ7KzrN_8F-11" value="&lt;font style=&quot;font-size: 30px&quot;&gt;V&lt;/font&gt;" style="whiteSpace=wrap;html=1;aspect=fixed;" parent="1" vertex="1">
          <mxGeometry x="440" y="364" width="40" height="40" as="geometry" />
        </mxCell>
        <mxCell id="WNs4VfGeRKVJ7KzrN_8F-12" value="" style="rounded=0;whiteSpace=wrap;html=1;fillColor=#ffe6cc;strokeColor=#d79b00;" parent="1" vertex="1">
          <mxGeometry x="800" y="364" width="280" height="40" as="geometry" />
        </mxCell>
        <mxCell id="WNs4VfGeRKVJ7KzrN_8F-15" value="" style="rounded=0;whiteSpace=wrap;html=1;strokeColor=#d79b00;fillColor=#FFD966;" parent="1" vertex="1">
          <mxGeometry x="80" y="427" width="280" height="40" as="geometry" />
        </mxCell>
        <mxCell id="WNs4VfGeRKVJ7KzrN_8F-16" value="&lt;font style=&quot;font-size: 30px&quot;&gt;V&lt;/font&gt;" style="whiteSpace=wrap;html=1;aspect=fixed;" parent="1" vertex="1">
          <mxGeometry x="440" y="427" width="40" height="40" as="geometry" />
        </mxCell>
        <mxCell id="WNs4VfGeRKVJ7KzrN_8F-17" value="" style="rounded=0;whiteSpace=wrap;html=1;strokeColor=#82b366;fillColor=#97D077;" parent="1" vertex="1">
          <mxGeometry x="80" y="489" width="280" height="40" as="geometry" />
        </mxCell>
        <mxCell id="WNs4VfGeRKVJ7KzrN_8F-18" value="&lt;font style=&quot;font-size: 30px&quot;&gt;V&lt;/font&gt;" style="whiteSpace=wrap;html=1;aspect=fixed;" parent="1" vertex="1">
          <mxGeometry x="440" y="489" width="40" height="40" as="geometry" />
        </mxCell>
        <mxCell id="WNs4VfGeRKVJ7KzrN_8F-19" value="" style="rounded=0;whiteSpace=wrap;html=1;fillColor=#ffe6cc;strokeColor=#d79b00;" parent="1" vertex="1">
          <mxGeometry x="800" y="489" width="280" height="40" as="geometry" />
        </mxCell>
        <mxCell id="WNs4VfGeRKVJ7KzrN_8F-21" value="" style="rounded=0;whiteSpace=wrap;html=1;strokeColor=#d79b00;fillColor=#FFD966;" parent="1" vertex="1">
          <mxGeometry x="80" y="552" width="280" height="40" as="geometry" />
        </mxCell>
        <mxCell id="WNs4VfGeRKVJ7KzrN_8F-22" value="&lt;font style=&quot;font-size: 30px&quot;&gt;V&lt;/font&gt;" style="whiteSpace=wrap;html=1;aspect=fixed;" parent="1" vertex="1">
          <mxGeometry x="440" y="552" width="40" height="40" as="geometry" />
        </mxCell>
        <mxCell id="WNs4VfGeRKVJ7KzrN_8F-26" value="" style="rounded=0;whiteSpace=wrap;html=1;strokeColor=#82b366;fillColor=#97D077;" parent="1" vertex="1">
          <mxGeometry x="80" y="615" width="280" height="40" as="geometry" />
        </mxCell>
        <mxCell id="WNs4VfGeRKVJ7KzrN_8F-27" value="" style="rounded=0;whiteSpace=wrap;html=1;fillColor=#ffe6cc;strokeColor=#d79b00;" parent="1" vertex="1">
          <mxGeometry x="800" y="615" width="280" height="40" as="geometry" />
        </mxCell>
        <mxCell id="WNs4VfGeRKVJ7KzrN_8F-28" value="" style="whiteSpace=wrap;html=1;aspect=fixed;" parent="1" vertex="1">
          <mxGeometry x="560" y="615" width="40" height="40" as="geometry" />
        </mxCell>
        <mxCell id="WNs4VfGeRKVJ7KzrN_8F-29" value="" style="rounded=0;whiteSpace=wrap;html=1;strokeColor=#82b366;fillColor=#97D077;" parent="1" vertex="1">
          <mxGeometry x="800" y="678" width="280" height="40" as="geometry" />
        </mxCell>
        <mxCell id="WNs4VfGeRKVJ7KzrN_8F-30" value="" style="rounded=0;whiteSpace=wrap;html=1;fillColor=#ffe6cc;strokeColor=#d79b00;" parent="1" vertex="1">
          <mxGeometry x="80" y="678" width="280" height="40" as="geometry" />
        </mxCell>
        <mxCell id="WNs4VfGeRKVJ7KzrN_8F-31" value="&lt;font style=&quot;font-size: 30px&quot;&gt;V&lt;/font&gt;" style="whiteSpace=wrap;html=1;aspect=fixed;" parent="1" vertex="1">
          <mxGeometry x="680" y="678" width="40" height="40" as="geometry" />
        </mxCell>
        <mxCell id="WNs4VfGeRKVJ7KzrN_8F-14" value="" style="rounded=0;whiteSpace=wrap;html=1;fillColor=#d5e8d4;strokeColor=#82b366;fontStyle=4" parent="1" vertex="1">
          <mxGeometry x="800" y="427" width="280" height="40" as="geometry" />
        </mxCell>
        <mxCell id="WNs4VfGeRKVJ7KzrN_8F-13" value="" style="shape=mxgraph.bpmn.loop;html=1;outlineConnect=0;fillColor=#97D077;aspect=fixed;strokeWidth=4;strokeColor=#006600;" parent="1" vertex="1">
          <mxGeometry x="1008" y="429.5" width="35" height="35" as="geometry" />
        </mxCell>
        <mxCell id="WNs4VfGeRKVJ7KzrN_8F-35" value="" style="rounded=0;whiteSpace=wrap;html=1;fillColor=#d5e8d4;strokeColor=#82b366;" parent="1" vertex="1">
          <mxGeometry x="800" y="552" width="280" height="40" as="geometry" />
        </mxCell>
        <mxCell id="WNs4VfGeRKVJ7KzrN_8F-25" value="" style="shape=mxgraph.bpmn.loop;html=1;outlineConnect=0;fillColor=#97D077;aspect=fixed;strokeWidth=4;strokeColor=#006600;" parent="1" vertex="1">
          <mxGeometry x="844" y="554.5" width="35" height="35" as="geometry" />
        </mxCell>
        <mxCell id="QQ3Ofn4rccTjiineWkrD-2" value="&lt;font style=&quot;font-size: 28px&quot;&gt;Поток 1&lt;/font&gt;" style="text;html=1;strokeColor=none;fillColor=none;align=center;verticalAlign=middle;whiteSpace=wrap;rounded=0;" parent="1" vertex="1">
          <mxGeometry x="80" y="168" width="280" height="20" as="geometry" />
        </mxCell>
        <mxCell id="QQ3Ofn4rccTjiineWkrD-3" value="&lt;font style=&quot;font-size: 28px&quot;&gt;Поток 2&lt;/font&gt;" style="text;html=1;strokeColor=none;fillColor=none;align=center;verticalAlign=middle;whiteSpace=wrap;rounded=0;" parent="1" vertex="1">
          <mxGeometry x="800" y="178" width="280" height="20" as="geometry" />
        </mxCell>
        <mxCell id="rXnqCq2_A0LuwToooeDi-1" value="" style="shape=mxgraph.bpmn.loop;html=1;outlineConnect=0;fillColor=#97D077;aspect=fixed;strokeWidth=4;strokeColor=#006600;" parent="1" vertex="1">
          <mxGeometry x="1045" y="429.5" width="35" height="35" as="geometry" />
        </mxCell>
        <mxCell id="rXnqCq2_A0LuwToooeDi-2" value="" style="shape=mxgraph.bpmn.loop;html=1;outlineConnect=0;fillColor=#97D077;aspect=fixed;strokeWidth=4;strokeColor=#006600;" parent="1" vertex="1">
          <mxGeometry x="805" y="554.5" width="35" height="35" as="geometry" />
        </mxCell>
        <mxCell id="rXnqCq2_A0LuwToooeDi-3" value="" style="shape=mxgraph.bpmn.loop;html=1;outlineConnect=0;fillColor=#97D077;aspect=fixed;strokeWidth=4;strokeColor=#006600;" parent="1" vertex="1">
          <mxGeometry x="914" y="555" width="35" height="35" as="geometry" />
        </mxCell>
        <mxCell id="rXnqCq2_A0LuwToooeDi-4" value="" style="shape=mxgraph.bpmn.loop;html=1;outlineConnect=0;fillColor=#97D077;aspect=fixed;strokeWidth=4;strokeColor=#006600;" parent="1" vertex="1">
          <mxGeometry x="879" y="555" width="35" height="35" as="geometry" />
        </mxCell>
      </root>
    </mxGraphModel>
  </diagram>
  <diagram name="Copy of mutex-spinlock" id="XOZkarTTsC4ruiQw6ryN">
    <mxGraphModel dx="2370" dy="1337" grid="1" gridSize="10" guides="1" tooltips="1" connect="1" arrows="1" fold="1" page="1" pageScale="1" pageWidth="1169" pageHeight="827" math="0" shadow="0">
      <root>
        <mxCell id="5HgzZPxjZxMlD22dxsx7-0" />
        <mxCell id="5HgzZPxjZxMlD22dxsx7-1" parent="5HgzZPxjZxMlD22dxsx7-0" />
        <mxCell id="5HgzZPxjZxMlD22dxsx7-2" value="" style="rounded=0;whiteSpace=wrap;html=1;fillColor=#d5e8d4;strokeColor=#82b366;" vertex="1" parent="5HgzZPxjZxMlD22dxsx7-1">
          <mxGeometry x="800" y="301" width="280" height="40" as="geometry" />
        </mxCell>
        <mxCell id="5HgzZPxjZxMlD22dxsx7-3" value="" style="rounded=0;whiteSpace=wrap;html=1;fillColor=#d5e8d4;strokeColor=#82b366;" vertex="1" parent="5HgzZPxjZxMlD22dxsx7-1">
          <mxGeometry x="80" y="238" width="280" height="40" as="geometry" />
        </mxCell>
        <mxCell id="5HgzZPxjZxMlD22dxsx7-4" value="" style="rounded=0;whiteSpace=wrap;html=1;fillColor=#ffe6cc;strokeColor=#d79b00;" vertex="1" parent="5HgzZPxjZxMlD22dxsx7-1">
          <mxGeometry x="800" y="238" width="280" height="40" as="geometry" />
        </mxCell>
        <mxCell id="5HgzZPxjZxMlD22dxsx7-5" value="" style="rounded=0;whiteSpace=wrap;html=1;fillColor=#ffe6cc;strokeColor=#d79b00;" vertex="1" parent="5HgzZPxjZxMlD22dxsx7-1">
          <mxGeometry x="80" y="301" width="280" height="40" as="geometry" />
        </mxCell>
        <mxCell id="5HgzZPxjZxMlD22dxsx7-6" value="" style="rounded=0;whiteSpace=wrap;html=1;strokeColor=#82b366;fillColor=#97D077;" vertex="1" parent="5HgzZPxjZxMlD22dxsx7-1">
          <mxGeometry x="80" y="364" width="280" height="40" as="geometry" />
        </mxCell>
        <mxCell id="5HgzZPxjZxMlD22dxsx7-7" value="" style="whiteSpace=wrap;html=1;aspect=fixed;" vertex="1" parent="5HgzZPxjZxMlD22dxsx7-1">
          <mxGeometry x="560" y="238" width="40" height="40" as="geometry" />
        </mxCell>
        <mxCell id="5HgzZPxjZxMlD22dxsx7-8" value="" style="whiteSpace=wrap;html=1;aspect=fixed;" vertex="1" parent="5HgzZPxjZxMlD22dxsx7-1">
          <mxGeometry x="560" y="301" width="40" height="40" as="geometry" />
        </mxCell>
        <mxCell id="5HgzZPxjZxMlD22dxsx7-9" value="&lt;font style=&quot;font-size: 30px&quot;&gt;V&lt;/font&gt;" style="whiteSpace=wrap;html=1;aspect=fixed;" vertex="1" parent="5HgzZPxjZxMlD22dxsx7-1">
          <mxGeometry x="440" y="364" width="40" height="40" as="geometry" />
        </mxCell>
        <mxCell id="5HgzZPxjZxMlD22dxsx7-10" value="" style="rounded=0;whiteSpace=wrap;html=1;fillColor=#ffe6cc;strokeColor=#d79b00;" vertex="1" parent="5HgzZPxjZxMlD22dxsx7-1">
          <mxGeometry x="800" y="364" width="280" height="40" as="geometry" />
        </mxCell>
        <mxCell id="5HgzZPxjZxMlD22dxsx7-13" value="" style="rounded=0;whiteSpace=wrap;html=1;strokeColor=#82b366;fillColor=#97D077;" vertex="1" parent="5HgzZPxjZxMlD22dxsx7-1">
          <mxGeometry x="80" y="489" width="280" height="40" as="geometry" />
        </mxCell>
        <mxCell id="5HgzZPxjZxMlD22dxsx7-14" value="&lt;font style=&quot;font-size: 30px&quot;&gt;V&lt;/font&gt;" style="whiteSpace=wrap;html=1;aspect=fixed;" vertex="1" parent="5HgzZPxjZxMlD22dxsx7-1">
          <mxGeometry x="440" y="489" width="40" height="40" as="geometry" />
        </mxCell>
        <mxCell id="5HgzZPxjZxMlD22dxsx7-15" value="" style="rounded=0;whiteSpace=wrap;html=1;strokeColor=#b85450;fillColor=#FF3333;" vertex="1" parent="5HgzZPxjZxMlD22dxsx7-1">
          <mxGeometry x="800" y="489" width="280" height="40" as="geometry" />
        </mxCell>
        <mxCell id="5HgzZPxjZxMlD22dxsx7-18" value="" style="rounded=0;whiteSpace=wrap;html=1;strokeColor=#82b366;fillColor=#97D077;" vertex="1" parent="5HgzZPxjZxMlD22dxsx7-1">
          <mxGeometry x="80" y="615" width="280" height="40" as="geometry" />
        </mxCell>
        <mxCell id="5HgzZPxjZxMlD22dxsx7-19" value="" style="rounded=0;whiteSpace=wrap;html=1;fillColor=#ffe6cc;strokeColor=#d79b00;" vertex="1" parent="5HgzZPxjZxMlD22dxsx7-1">
          <mxGeometry x="800" y="615" width="280" height="40" as="geometry" />
        </mxCell>
        <mxCell id="5HgzZPxjZxMlD22dxsx7-20" value="" style="whiteSpace=wrap;html=1;aspect=fixed;" vertex="1" parent="5HgzZPxjZxMlD22dxsx7-1">
          <mxGeometry x="560" y="615" width="40" height="40" as="geometry" />
        </mxCell>
        <mxCell id="5HgzZPxjZxMlD22dxsx7-21" value="" style="rounded=0;whiteSpace=wrap;html=1;strokeColor=#82b366;fillColor=#97D077;" vertex="1" parent="5HgzZPxjZxMlD22dxsx7-1">
          <mxGeometry x="800" y="678" width="280" height="40" as="geometry" />
        </mxCell>
        <mxCell id="5HgzZPxjZxMlD22dxsx7-22" value="" style="rounded=0;whiteSpace=wrap;html=1;fillColor=#ffe6cc;strokeColor=#d79b00;" vertex="1" parent="5HgzZPxjZxMlD22dxsx7-1">
          <mxGeometry x="80" y="678" width="280" height="40" as="geometry" />
        </mxCell>
        <mxCell id="5HgzZPxjZxMlD22dxsx7-23" value="&lt;font style=&quot;font-size: 30px&quot;&gt;V&lt;/font&gt;" style="whiteSpace=wrap;html=1;aspect=fixed;" vertex="1" parent="5HgzZPxjZxMlD22dxsx7-1">
          <mxGeometry x="680" y="678" width="40" height="40" as="geometry" />
        </mxCell>
        <mxCell id="5HgzZPxjZxMlD22dxsx7-28" value="&lt;font style=&quot;font-size: 28px&quot;&gt;Поток 1&lt;/font&gt;" style="text;html=1;strokeColor=none;fillColor=none;align=center;verticalAlign=middle;whiteSpace=wrap;rounded=0;" vertex="1" parent="5HgzZPxjZxMlD22dxsx7-1">
          <mxGeometry x="80" y="168" width="280" height="20" as="geometry" />
        </mxCell>
        <mxCell id="5HgzZPxjZxMlD22dxsx7-29" value="&lt;font style=&quot;font-size: 28px&quot;&gt;Поток 2&lt;/font&gt;" style="text;html=1;strokeColor=none;fillColor=none;align=center;verticalAlign=middle;whiteSpace=wrap;rounded=0;" vertex="1" parent="5HgzZPxjZxMlD22dxsx7-1">
          <mxGeometry x="800" y="178" width="280" height="20" as="geometry" />
        </mxCell>
      </root>
    </mxGraphModel>
  </diagram>
  <diagram id="MGE0amIgMyFyMzsWidT_" name="Page-3">
    <mxGraphModel dx="1185" dy="672" grid="1" gridSize="10" guides="1" tooltips="1" connect="1" arrows="1" fold="1" page="1" pageScale="1" pageWidth="1169" pageHeight="827" math="0" shadow="0">
      <root>
        <mxCell id="egzKSEprmWDQXE4lO2Hz-0" />
        <mxCell id="egzKSEprmWDQXE4lO2Hz-1" parent="egzKSEprmWDQXE4lO2Hz-0" />
        <mxCell id="egzKSEprmWDQXE4lO2Hz-2" value="" style="rounded=0;whiteSpace=wrap;html=1;fillColor=#d5e8d4;strokeColor=#82b366;" parent="egzKSEprmWDQXE4lO2Hz-1" vertex="1">
          <mxGeometry x="80" y="120" width="120" height="40" as="geometry" />
        </mxCell>
        <mxCell id="egzKSEprmWDQXE4lO2Hz-4" value="" style="rounded=0;whiteSpace=wrap;html=1;fillColor=#fff2cc;strokeColor=#d6b656;" parent="egzKSEprmWDQXE4lO2Hz-1" vertex="1">
          <mxGeometry x="200" y="120" width="120" height="40" as="geometry" />
        </mxCell>
        <mxCell id="egzKSEprmWDQXE4lO2Hz-5" value="" style="rounded=0;whiteSpace=wrap;html=1;fillColor=#fff2cc;strokeColor=#d6b656;" parent="egzKSEprmWDQXE4lO2Hz-1" vertex="1">
          <mxGeometry x="80" y="360" width="120" height="40" as="geometry" />
        </mxCell>
        <mxCell id="egzKSEprmWDQXE4lO2Hz-6" value="" style="rounded=0;whiteSpace=wrap;html=1;fillColor=#d5e8d4;strokeColor=#82b366;" parent="egzKSEprmWDQXE4lO2Hz-1" vertex="1">
          <mxGeometry x="200" y="360" width="120" height="40" as="geometry" />
        </mxCell>
        <mxCell id="0aPPDFqxMMvj2nhd9XFM-1" value="" style="rounded=0;whiteSpace=wrap;html=1;strokeColor=#82b366;fillColor=#97D077;" parent="egzKSEprmWDQXE4lO2Hz-1" vertex="1">
          <mxGeometry x="360" y="120" width="80" height="40" as="geometry" />
        </mxCell>
        <mxCell id="0aPPDFqxMMvj2nhd9XFM-2" value="" style="rounded=0;whiteSpace=wrap;html=1;fillColor=#d5e8d4;strokeColor=#82b366;" parent="egzKSEprmWDQXE4lO2Hz-1" vertex="1">
          <mxGeometry x="320" y="120" width="40" height="40" as="geometry" />
        </mxCell>
        <mxCell id="0aPPDFqxMMvj2nhd9XFM-0" value="&lt;font style=&quot;font-size: 30px&quot;&gt;V&lt;/font&gt;" style="whiteSpace=wrap;html=1;aspect=fixed;" parent="egzKSEprmWDQXE4lO2Hz-1" vertex="1">
          <mxGeometry x="360" y="200" width="40" height="40" as="geometry" />
        </mxCell>
        <mxCell id="0aPPDFqxMMvj2nhd9XFM-6" value="" style="whiteSpace=wrap;html=1;aspect=fixed;" parent="egzKSEprmWDQXE4lO2Hz-1" vertex="1">
          <mxGeometry x="80" y="240" width="40" height="40" as="geometry" />
        </mxCell>
        <mxCell id="0aPPDFqxMMvj2nhd9XFM-7" value="&lt;font style=&quot;font-size: 30px&quot;&gt;V&lt;/font&gt;" style="whiteSpace=wrap;html=1;aspect=fixed;" parent="egzKSEprmWDQXE4lO2Hz-1" vertex="1">
          <mxGeometry x="400" y="200" width="40" height="40" as="geometry" />
        </mxCell>
        <mxCell id="0aPPDFqxMMvj2nhd9XFM-8" value="" style="rounded=0;whiteSpace=wrap;html=1;fillColor=#fff2cc;strokeColor=#d6b656;" parent="egzKSEprmWDQXE4lO2Hz-1" vertex="1">
          <mxGeometry x="320" y="360" width="120" height="40" as="geometry" />
        </mxCell>
        <mxCell id="0aPPDFqxMMvj2nhd9XFM-9" value="" style="whiteSpace=wrap;html=1;aspect=fixed;" parent="egzKSEprmWDQXE4lO2Hz-1" vertex="1">
          <mxGeometry x="120" y="240" width="40" height="40" as="geometry" />
        </mxCell>
        <mxCell id="0aPPDFqxMMvj2nhd9XFM-10" value="" style="whiteSpace=wrap;html=1;aspect=fixed;" parent="egzKSEprmWDQXE4lO2Hz-1" vertex="1">
          <mxGeometry x="200" y="240" width="40" height="40" as="geometry" />
        </mxCell>
        <mxCell id="0aPPDFqxMMvj2nhd9XFM-11" value="" style="whiteSpace=wrap;html=1;aspect=fixed;" parent="egzKSEprmWDQXE4lO2Hz-1" vertex="1">
          <mxGeometry x="160" y="240" width="40" height="40" as="geometry" />
        </mxCell>
        <mxCell id="0aPPDFqxMMvj2nhd9XFM-13" value="" style="whiteSpace=wrap;html=1;aspect=fixed;" parent="egzKSEprmWDQXE4lO2Hz-1" vertex="1">
          <mxGeometry x="240" y="240" width="40" height="40" as="geometry" />
        </mxCell>
        <mxCell id="0aPPDFqxMMvj2nhd9XFM-14" value="" style="whiteSpace=wrap;html=1;aspect=fixed;" parent="egzKSEprmWDQXE4lO2Hz-1" vertex="1">
          <mxGeometry x="280" y="240" width="40" height="40" as="geometry" />
        </mxCell>
        <mxCell id="0aPPDFqxMMvj2nhd9XFM-15" value="" style="whiteSpace=wrap;html=1;aspect=fixed;" parent="egzKSEprmWDQXE4lO2Hz-1" vertex="1">
          <mxGeometry x="320" y="240" width="40" height="40" as="geometry" />
        </mxCell>
        <mxCell id="0aPPDFqxMMvj2nhd9XFM-16" value="" style="rounded=0;whiteSpace=wrap;html=1;fillColor=#d5e8d4;strokeColor=#82b366;" parent="egzKSEprmWDQXE4lO2Hz-1" vertex="1">
          <mxGeometry x="440" y="360" width="120" height="40" as="geometry" />
        </mxCell>
        <mxCell id="0aPPDFqxMMvj2nhd9XFM-17" value="" style="rounded=0;whiteSpace=wrap;html=1;fillColor=#fff2cc;strokeColor=#d6b656;" parent="egzKSEprmWDQXE4lO2Hz-1" vertex="1">
          <mxGeometry x="440" y="120" width="120" height="40" as="geometry" />
        </mxCell>
        <mxCell id="0aPPDFqxMMvj2nhd9XFM-18" value="&lt;font style=&quot;font-size: 30px&quot;&gt;V&lt;/font&gt;" style="whiteSpace=wrap;html=1;aspect=fixed;" parent="egzKSEprmWDQXE4lO2Hz-1" vertex="1">
          <mxGeometry x="440" y="200" width="40" height="40" as="geometry" />
        </mxCell>
        <mxCell id="0aPPDFqxMMvj2nhd9XFM-19" value="&lt;font style=&quot;font-size: 30px&quot;&gt;V&lt;/font&gt;" style="whiteSpace=wrap;html=1;aspect=fixed;" parent="egzKSEprmWDQXE4lO2Hz-1" vertex="1">
          <mxGeometry x="480" y="200" width="40" height="40" as="geometry" />
        </mxCell>
        <mxCell id="0aPPDFqxMMvj2nhd9XFM-20" value="&lt;font style=&quot;font-size: 30px&quot;&gt;V&lt;/font&gt;" style="whiteSpace=wrap;html=1;aspect=fixed;" parent="egzKSEprmWDQXE4lO2Hz-1" vertex="1">
          <mxGeometry x="520" y="200" width="40" height="40" as="geometry" />
        </mxCell>
        <mxCell id="0aPPDFqxMMvj2nhd9XFM-21" value="&lt;font style=&quot;font-size: 30px&quot;&gt;V&lt;/font&gt;" style="whiteSpace=wrap;html=1;aspect=fixed;" parent="egzKSEprmWDQXE4lO2Hz-1" vertex="1">
          <mxGeometry x="560" y="200" width="40" height="40" as="geometry" />
        </mxCell>
        <mxCell id="0aPPDFqxMMvj2nhd9XFM-22" value="" style="rounded=0;whiteSpace=wrap;html=1;strokeColor=#82b366;fillColor=#97D077;" parent="egzKSEprmWDQXE4lO2Hz-1" vertex="1">
          <mxGeometry x="560" y="120" width="120" height="40" as="geometry" />
        </mxCell>
        <mxCell id="EkMnIeAbIw2VScNW5JcH-1" value="" style="shape=mxgraph.bpmn.loop;html=1;outlineConnect=0;fillColor=#97D077;aspect=fixed;strokeWidth=4;strokeColor=#006600;" parent="egzKSEprmWDQXE4lO2Hz-1" vertex="1">
          <mxGeometry x="521" y="362" width="35" height="35" as="geometry" />
        </mxCell>
        <mxCell id="EkMnIeAbIw2VScNW5JcH-2" value="" style="rounded=0;whiteSpace=wrap;html=1;fillColor=#fff2cc;strokeColor=#d6b656;" parent="egzKSEprmWDQXE4lO2Hz-1" vertex="1">
          <mxGeometry x="560" y="360" width="120" height="40" as="geometry" />
        </mxCell>
        <mxCell id="EkMnIeAbIw2VScNW5JcH-3" value="&lt;font style=&quot;font-size: 30px&quot;&gt;V&lt;/font&gt;" style="whiteSpace=wrap;html=1;aspect=fixed;" parent="egzKSEprmWDQXE4lO2Hz-1" vertex="1">
          <mxGeometry x="600" y="200" width="40" height="40" as="geometry" />
        </mxCell>
        <mxCell id="EkMnIeAbIw2VScNW5JcH-4" value="&lt;font style=&quot;font-size: 30px&quot;&gt;V&lt;/font&gt;" style="whiteSpace=wrap;html=1;aspect=fixed;" parent="egzKSEprmWDQXE4lO2Hz-1" vertex="1">
          <mxGeometry x="640" y="200" width="40" height="40" as="geometry" />
        </mxCell>
        <mxCell id="EkMnIeAbIw2VScNW5JcH-5" value="" style="rounded=0;whiteSpace=wrap;html=1;fillColor=#d5e8d4;strokeColor=#82b366;" parent="egzKSEprmWDQXE4lO2Hz-1" vertex="1">
          <mxGeometry x="680" y="360.5" width="120" height="40" as="geometry" />
        </mxCell>
        <mxCell id="EkMnIeAbIw2VScNW5JcH-6" value="" style="shape=mxgraph.bpmn.loop;html=1;outlineConnect=0;fillColor=#97D077;aspect=fixed;strokeWidth=4;strokeColor=#006600;" parent="egzKSEprmWDQXE4lO2Hz-1" vertex="1">
          <mxGeometry x="722.5" y="362.5" width="35" height="35" as="geometry" />
        </mxCell>
        <mxCell id="EkMnIeAbIw2VScNW5JcH-7" value="" style="shape=mxgraph.bpmn.loop;html=1;outlineConnect=0;fillColor=#97D077;aspect=fixed;strokeWidth=4;strokeColor=#006600;" parent="egzKSEprmWDQXE4lO2Hz-1" vertex="1">
          <mxGeometry x="761" y="362.5" width="35" height="35" as="geometry" />
        </mxCell>
        <mxCell id="EkMnIeAbIw2VScNW5JcH-8" value="" style="shape=mxgraph.bpmn.loop;html=1;outlineConnect=0;fillColor=#97D077;aspect=fixed;strokeWidth=4;strokeColor=#006600;" parent="egzKSEprmWDQXE4lO2Hz-1" vertex="1">
          <mxGeometry x="683.5" y="363" width="35" height="35" as="geometry" />
        </mxCell>
        <mxCell id="EkMnIeAbIw2VScNW5JcH-9" value="" style="rounded=0;whiteSpace=wrap;html=1;fillColor=#fff2cc;strokeColor=#d6b656;" parent="egzKSEprmWDQXE4lO2Hz-1" vertex="1">
          <mxGeometry x="680" y="120" width="120" height="40" as="geometry" />
        </mxCell>
        <mxCell id="EkMnIeAbIw2VScNW5JcH-10" value="&lt;font style=&quot;font-size: 30px&quot;&gt;V&lt;/font&gt;" style="whiteSpace=wrap;html=1;aspect=fixed;" parent="egzKSEprmWDQXE4lO2Hz-1" vertex="1">
          <mxGeometry x="680" y="200" width="40" height="40" as="geometry" />
        </mxCell>
        <mxCell id="EkMnIeAbIw2VScNW5JcH-11" value="&lt;font style=&quot;font-size: 30px&quot;&gt;V&lt;/font&gt;" style="whiteSpace=wrap;html=1;aspect=fixed;" parent="egzKSEprmWDQXE4lO2Hz-1" vertex="1">
          <mxGeometry x="720" y="200" width="40" height="40" as="geometry" />
        </mxCell>
        <mxCell id="EkMnIeAbIw2VScNW5JcH-12" value="&lt;font style=&quot;font-size: 30px&quot;&gt;V&lt;/font&gt;" style="whiteSpace=wrap;html=1;aspect=fixed;" parent="egzKSEprmWDQXE4lO2Hz-1" vertex="1">
          <mxGeometry x="760" y="200" width="40" height="40" as="geometry" />
        </mxCell>
        <mxCell id="EkMnIeAbIw2VScNW5JcH-13" value="&lt;font style=&quot;font-size: 30px&quot;&gt;V&lt;/font&gt;" style="whiteSpace=wrap;html=1;aspect=fixed;" parent="egzKSEprmWDQXE4lO2Hz-1" vertex="1">
          <mxGeometry x="800" y="200" width="40" height="40" as="geometry" />
        </mxCell>
        <mxCell id="EkMnIeAbIw2VScNW5JcH-14" value="" style="rounded=0;whiteSpace=wrap;html=1;strokeColor=#82b366;fillColor=#97D077;" parent="egzKSEprmWDQXE4lO2Hz-1" vertex="1">
          <mxGeometry x="800" y="120" width="40" height="40" as="geometry" />
        </mxCell>
        <mxCell id="EkMnIeAbIw2VScNW5JcH-15" value="" style="whiteSpace=wrap;html=1;aspect=fixed;" parent="egzKSEprmWDQXE4lO2Hz-1" vertex="1">
          <mxGeometry x="840" y="240" width="40" height="40" as="geometry" />
        </mxCell>
        <mxCell id="EkMnIeAbIw2VScNW5JcH-16" value="" style="whiteSpace=wrap;html=1;aspect=fixed;" parent="egzKSEprmWDQXE4lO2Hz-1" vertex="1">
          <mxGeometry x="880" y="240" width="40" height="40" as="geometry" />
        </mxCell>
        <mxCell id="EkMnIeAbIw2VScNW5JcH-17" value="" style="rounded=0;whiteSpace=wrap;html=1;strokeColor=#82b366;fillColor=#d5e8d4;" parent="egzKSEprmWDQXE4lO2Hz-1" vertex="1">
          <mxGeometry x="840" y="120" width="80" height="40" as="geometry" />
        </mxCell>
        <mxCell id="EkMnIeAbIw2VScNW5JcH-18" value="" style="rounded=0;whiteSpace=wrap;html=1;fillColor=#fff2cc;strokeColor=#d6b656;" parent="egzKSEprmWDQXE4lO2Hz-1" vertex="1">
          <mxGeometry x="800" y="360.5" width="120" height="40" as="geometry" />
        </mxCell>
        <mxCell id="EkMnIeAbIw2VScNW5JcH-19" value="" style="rounded=0;whiteSpace=wrap;html=1;strokeColor=#82b366;fillColor=#d5e8d4;" parent="egzKSEprmWDQXE4lO2Hz-1" vertex="1">
          <mxGeometry x="920" y="360.5" width="80" height="40" as="geometry" />
        </mxCell>
        <mxCell id="EkMnIeAbIw2VScNW5JcH-20" value="" style="rounded=0;whiteSpace=wrap;html=1;strokeColor=#82b366;fillColor=#97D077;" parent="egzKSEprmWDQXE4lO2Hz-1" vertex="1">
          <mxGeometry x="1000" y="360.5" width="40" height="40" as="geometry" />
        </mxCell>
        <mxCell id="EkMnIeAbIw2VScNW5JcH-21" value="" style="whiteSpace=wrap;html=1;aspect=fixed;" parent="egzKSEprmWDQXE4lO2Hz-1" vertex="1">
          <mxGeometry x="920" y="240" width="40" height="40" as="geometry" />
        </mxCell>
        <mxCell id="EkMnIeAbIw2VScNW5JcH-22" value="" style="whiteSpace=wrap;html=1;aspect=fixed;" parent="egzKSEprmWDQXE4lO2Hz-1" vertex="1">
          <mxGeometry x="960" y="240" width="40" height="40" as="geometry" />
        </mxCell>
        <mxCell id="EkMnIeAbIw2VScNW5JcH-23" value="&lt;font style=&quot;font-size: 30px&quot;&gt;V&lt;/font&gt;" style="whiteSpace=wrap;html=1;aspect=fixed;" parent="egzKSEprmWDQXE4lO2Hz-1" vertex="1">
          <mxGeometry x="1000" y="280" width="40" height="40" as="geometry" />
        </mxCell>
        <mxCell id="EkMnIeAbIw2VScNW5JcH-24" value="" style="rounded=0;whiteSpace=wrap;html=1;fillColor=#fff2cc;strokeColor=#d6b656;" parent="egzKSEprmWDQXE4lO2Hz-1" vertex="1">
          <mxGeometry x="920" y="120" width="120" height="40" as="geometry" />
        </mxCell>
        <mxCell id="Ox74ODpOmAC8dxmcJTIc-1" value="" style="endArrow=classic;html=1;exitX=0.5;exitY=1;exitDx=0;exitDy=0;entryX=0.5;entryY=0;entryDx=0;entryDy=0;" parent="egzKSEprmWDQXE4lO2Hz-1" source="0aPPDFqxMMvj2nhd9XFM-2" target="0aPPDFqxMMvj2nhd9XFM-15" edge="1">
          <mxGeometry width="50" height="50" relative="1" as="geometry">
            <mxPoint x="210" y="590" as="sourcePoint" />
            <mxPoint x="260" y="540" as="targetPoint" />
          </mxGeometry>
        </mxCell>
        <mxCell id="69qzEcdlD3jyEWn3shQl-0" value="" style="endArrow=classic;html=1;entryX=0.5;entryY=1;entryDx=0;entryDy=0;" edge="1" parent="egzKSEprmWDQXE4lO2Hz-1" target="0aPPDFqxMMvj2nhd9XFM-19">
          <mxGeometry width="50" height="50" relative="1" as="geometry">
            <mxPoint x="500" y="358" as="sourcePoint" />
            <mxPoint x="640" y="400" as="targetPoint" />
          </mxGeometry>
        </mxCell>
        <mxCell id="69qzEcdlD3jyEWn3shQl-1" value="" style="endArrow=classic;html=1;entryX=0.5;entryY=1;entryDx=0;entryDy=0;" edge="1" parent="egzKSEprmWDQXE4lO2Hz-1" target="EkMnIeAbIw2VScNW5JcH-10">
          <mxGeometry width="50" height="50" relative="1" as="geometry">
            <mxPoint x="700" y="360" as="sourcePoint" />
            <mxPoint x="640" y="400" as="targetPoint" />
          </mxGeometry>
        </mxCell>
        <mxCell id="69qzEcdlD3jyEWn3shQl-2" value="" style="endArrow=classic;html=1;exitX=0.842;exitY=0.007;exitDx=0;exitDy=0;exitPerimeter=0;entryX=0.5;entryY=1;entryDx=0;entryDy=0;" edge="1" parent="egzKSEprmWDQXE4lO2Hz-1" source="0aPPDFqxMMvj2nhd9XFM-16" target="0aPPDFqxMMvj2nhd9XFM-20">
          <mxGeometry width="50" height="50" relative="1" as="geometry">
            <mxPoint x="580" y="450" as="sourcePoint" />
            <mxPoint x="630" y="400" as="targetPoint" />
          </mxGeometry>
        </mxCell>
        <mxCell id="69qzEcdlD3jyEWn3shQl-3" value="" style="endArrow=classic;html=1;entryX=0.5;entryY=1;entryDx=0;entryDy=0;" edge="1" parent="egzKSEprmWDQXE4lO2Hz-1" target="EkMnIeAbIw2VScNW5JcH-11">
          <mxGeometry width="50" height="50" relative="1" as="geometry">
            <mxPoint x="740" y="360" as="sourcePoint" />
            <mxPoint x="710" y="250" as="targetPoint" />
          </mxGeometry>
        </mxCell>
        <mxCell id="69qzEcdlD3jyEWn3shQl-4" value="" style="endArrow=classic;html=1;entryX=0.5;entryY=1;entryDx=0;entryDy=0;" edge="1" parent="egzKSEprmWDQXE4lO2Hz-1" target="EkMnIeAbIw2VScNW5JcH-12">
          <mxGeometry width="50" height="50" relative="1" as="geometry">
            <mxPoint x="780" y="360" as="sourcePoint" />
            <mxPoint x="720" y="260" as="targetPoint" />
          </mxGeometry>
        </mxCell>
        <mxCell id="VBAqKeldqFWhcmaFy6Zt-0" value="" style="endArrow=none;dashed=1;html=1;dashPattern=1 3;strokeWidth=2;" edge="1" parent="egzKSEprmWDQXE4lO2Hz-1">
          <mxGeometry width="50" height="50" relative="1" as="geometry">
            <mxPoint x="200" y="440" as="sourcePoint" />
            <mxPoint x="200" y="80" as="targetPoint" />
          </mxGeometry>
        </mxCell>
        <mxCell id="VBAqKeldqFWhcmaFy6Zt-3" value="" style="endArrow=none;dashed=1;html=1;dashPattern=1 3;strokeWidth=2;" edge="1" parent="egzKSEprmWDQXE4lO2Hz-1">
          <mxGeometry width="50" height="50" relative="1" as="geometry">
            <mxPoint x="320" y="440" as="sourcePoint" />
            <mxPoint x="320" y="80" as="targetPoint" />
          </mxGeometry>
        </mxCell>
        <mxCell id="VBAqKeldqFWhcmaFy6Zt-4" value="" style="endArrow=none;dashed=1;html=1;dashPattern=1 3;strokeWidth=2;" edge="1" parent="egzKSEprmWDQXE4lO2Hz-1">
          <mxGeometry width="50" height="50" relative="1" as="geometry">
            <mxPoint x="440" y="440" as="sourcePoint" />
            <mxPoint x="440" y="80" as="targetPoint" />
          </mxGeometry>
        </mxCell>
        <mxCell id="VBAqKeldqFWhcmaFy6Zt-5" value="" style="endArrow=none;dashed=1;html=1;dashPattern=1 3;strokeWidth=2;" edge="1" parent="egzKSEprmWDQXE4lO2Hz-1">
          <mxGeometry width="50" height="50" relative="1" as="geometry">
            <mxPoint x="560" y="440" as="sourcePoint" />
            <mxPoint x="560" y="80" as="targetPoint" />
          </mxGeometry>
        </mxCell>
        <mxCell id="VBAqKeldqFWhcmaFy6Zt-6" value="" style="endArrow=none;dashed=1;html=1;dashPattern=1 3;strokeWidth=2;" edge="1" parent="egzKSEprmWDQXE4lO2Hz-1">
          <mxGeometry width="50" height="50" relative="1" as="geometry">
            <mxPoint x="679.1700000000001" y="440" as="sourcePoint" />
            <mxPoint x="679.1700000000001" y="80" as="targetPoint" />
          </mxGeometry>
        </mxCell>
        <mxCell id="VBAqKeldqFWhcmaFy6Zt-7" value="" style="endArrow=none;dashed=1;html=1;dashPattern=1 3;strokeWidth=2;" edge="1" parent="egzKSEprmWDQXE4lO2Hz-1">
          <mxGeometry width="50" height="50" relative="1" as="geometry">
            <mxPoint x="799.17" y="440" as="sourcePoint" />
            <mxPoint x="799.17" y="80" as="targetPoint" />
          </mxGeometry>
        </mxCell>
        <mxCell id="VBAqKeldqFWhcmaFy6Zt-8" value="" style="endArrow=none;dashed=1;html=1;dashPattern=1 3;strokeWidth=2;" edge="1" parent="egzKSEprmWDQXE4lO2Hz-1">
          <mxGeometry width="50" height="50" relative="1" as="geometry">
            <mxPoint x="920" y="440" as="sourcePoint" />
            <mxPoint x="920" y="80" as="targetPoint" />
          </mxGeometry>
        </mxCell>
      </root>
    </mxGraphModel>
  </diagram>
  <diagram name="Copy of Page-3" id="ASGZ3K-WkQ0-r-J1xUNQ">
    <mxGraphModel dx="1422" dy="806" grid="1" gridSize="10" guides="1" tooltips="1" connect="1" arrows="1" fold="1" page="1" pageScale="1" pageWidth="1169" pageHeight="827" math="0" shadow="0">
      <root>
        <mxCell id="yh3LMR_NNYSIdBTZSJ3h-0" />
        <mxCell id="yh3LMR_NNYSIdBTZSJ3h-1" parent="yh3LMR_NNYSIdBTZSJ3h-0" />
        <mxCell id="yh3LMR_NNYSIdBTZSJ3h-2" value="" style="rounded=0;whiteSpace=wrap;html=1;fillColor=#d5e8d4;strokeColor=#82b366;" parent="yh3LMR_NNYSIdBTZSJ3h-1" vertex="1">
          <mxGeometry x="80" y="120" width="120" height="40" as="geometry" />
        </mxCell>
        <mxCell id="yh3LMR_NNYSIdBTZSJ3h-3" value="" style="rounded=0;whiteSpace=wrap;html=1;fillColor=#fff2cc;strokeColor=#d6b656;" parent="yh3LMR_NNYSIdBTZSJ3h-1" vertex="1">
          <mxGeometry x="200" y="120" width="120" height="40" as="geometry" />
        </mxCell>
        <mxCell id="yh3LMR_NNYSIdBTZSJ3h-4" value="" style="rounded=0;whiteSpace=wrap;html=1;fillColor=#fff2cc;strokeColor=#d6b656;" parent="yh3LMR_NNYSIdBTZSJ3h-1" vertex="1">
          <mxGeometry x="80" y="360" width="120" height="40" as="geometry" />
        </mxCell>
        <mxCell id="yh3LMR_NNYSIdBTZSJ3h-5" value="" style="rounded=0;whiteSpace=wrap;html=1;fillColor=#d5e8d4;strokeColor=#82b366;" parent="yh3LMR_NNYSIdBTZSJ3h-1" vertex="1">
          <mxGeometry x="200" y="360" width="120" height="40" as="geometry" />
        </mxCell>
        <mxCell id="yh3LMR_NNYSIdBTZSJ3h-6" value="" style="rounded=0;whiteSpace=wrap;html=1;strokeColor=#82b366;fillColor=#97D077;" parent="yh3LMR_NNYSIdBTZSJ3h-1" vertex="1">
          <mxGeometry x="360" y="120" width="80" height="40" as="geometry" />
        </mxCell>
        <mxCell id="yh3LMR_NNYSIdBTZSJ3h-7" value="" style="rounded=0;whiteSpace=wrap;html=1;fillColor=#d5e8d4;strokeColor=#82b366;" parent="yh3LMR_NNYSIdBTZSJ3h-1" vertex="1">
          <mxGeometry x="320" y="120" width="40" height="40" as="geometry" />
        </mxCell>
        <mxCell id="yh3LMR_NNYSIdBTZSJ3h-8" value="&lt;font style=&quot;font-size: 30px&quot;&gt;V&lt;/font&gt;" style="whiteSpace=wrap;html=1;aspect=fixed;" parent="yh3LMR_NNYSIdBTZSJ3h-1" vertex="1">
          <mxGeometry x="360" y="200" width="40" height="40" as="geometry" />
        </mxCell>
        <mxCell id="yh3LMR_NNYSIdBTZSJ3h-9" value="" style="whiteSpace=wrap;html=1;aspect=fixed;" parent="yh3LMR_NNYSIdBTZSJ3h-1" vertex="1">
          <mxGeometry x="80" y="240" width="40" height="40" as="geometry" />
        </mxCell>
        <mxCell id="yh3LMR_NNYSIdBTZSJ3h-10" value="&lt;font style=&quot;font-size: 30px&quot;&gt;V&lt;/font&gt;" style="whiteSpace=wrap;html=1;aspect=fixed;" parent="yh3LMR_NNYSIdBTZSJ3h-1" vertex="1">
          <mxGeometry x="400" y="200" width="40" height="40" as="geometry" />
        </mxCell>
        <mxCell id="yh3LMR_NNYSIdBTZSJ3h-11" value="" style="rounded=0;whiteSpace=wrap;html=1;fillColor=#fff2cc;strokeColor=#d6b656;" parent="yh3LMR_NNYSIdBTZSJ3h-1" vertex="1">
          <mxGeometry x="320" y="360" width="120" height="40" as="geometry" />
        </mxCell>
        <mxCell id="yh3LMR_NNYSIdBTZSJ3h-12" value="" style="whiteSpace=wrap;html=1;aspect=fixed;" parent="yh3LMR_NNYSIdBTZSJ3h-1" vertex="1">
          <mxGeometry x="120" y="240" width="40" height="40" as="geometry" />
        </mxCell>
        <mxCell id="yh3LMR_NNYSIdBTZSJ3h-13" value="" style="whiteSpace=wrap;html=1;aspect=fixed;" parent="yh3LMR_NNYSIdBTZSJ3h-1" vertex="1">
          <mxGeometry x="200" y="240" width="40" height="40" as="geometry" />
        </mxCell>
        <mxCell id="yh3LMR_NNYSIdBTZSJ3h-14" value="" style="whiteSpace=wrap;html=1;aspect=fixed;" parent="yh3LMR_NNYSIdBTZSJ3h-1" vertex="1">
          <mxGeometry x="160" y="240" width="40" height="40" as="geometry" />
        </mxCell>
        <mxCell id="yh3LMR_NNYSIdBTZSJ3h-15" value="" style="whiteSpace=wrap;html=1;aspect=fixed;" parent="yh3LMR_NNYSIdBTZSJ3h-1" vertex="1">
          <mxGeometry x="240" y="240" width="40" height="40" as="geometry" />
        </mxCell>
        <mxCell id="yh3LMR_NNYSIdBTZSJ3h-16" value="" style="whiteSpace=wrap;html=1;aspect=fixed;" parent="yh3LMR_NNYSIdBTZSJ3h-1" vertex="1">
          <mxGeometry x="280" y="240" width="40" height="40" as="geometry" />
        </mxCell>
        <mxCell id="yh3LMR_NNYSIdBTZSJ3h-17" value="" style="whiteSpace=wrap;html=1;aspect=fixed;" parent="yh3LMR_NNYSIdBTZSJ3h-1" vertex="1">
          <mxGeometry x="320" y="240" width="40" height="40" as="geometry" />
        </mxCell>
        <mxCell id="yh3LMR_NNYSIdBTZSJ3h-18" value="" style="rounded=0;whiteSpace=wrap;html=1;fillColor=#d5e8d4;strokeColor=#82b366;" parent="yh3LMR_NNYSIdBTZSJ3h-1" vertex="1">
          <mxGeometry x="440" y="360" width="80" height="40" as="geometry" />
        </mxCell>
        <mxCell id="yh3LMR_NNYSIdBTZSJ3h-19" value="" style="rounded=0;whiteSpace=wrap;html=1;fillColor=#fff2cc;strokeColor=#d6b656;" parent="yh3LMR_NNYSIdBTZSJ3h-1" vertex="1">
          <mxGeometry x="440" y="120" width="80" height="40" as="geometry" />
        </mxCell>
        <mxCell id="yh3LMR_NNYSIdBTZSJ3h-20" value="&lt;font style=&quot;font-size: 30px&quot;&gt;V&lt;/font&gt;" style="whiteSpace=wrap;html=1;aspect=fixed;" parent="yh3LMR_NNYSIdBTZSJ3h-1" vertex="1">
          <mxGeometry x="440" y="200" width="40" height="40" as="geometry" />
        </mxCell>
        <mxCell id="yh3LMR_NNYSIdBTZSJ3h-21" value="&lt;font style=&quot;font-size: 30px&quot;&gt;V&lt;/font&gt;" style="whiteSpace=wrap;html=1;aspect=fixed;" parent="yh3LMR_NNYSIdBTZSJ3h-1" vertex="1">
          <mxGeometry x="480" y="200" width="40" height="40" as="geometry" />
        </mxCell>
        <mxCell id="yh3LMR_NNYSIdBTZSJ3h-23" value="&lt;font style=&quot;font-size: 30px&quot;&gt;V&lt;/font&gt;" style="whiteSpace=wrap;html=1;aspect=fixed;" parent="yh3LMR_NNYSIdBTZSJ3h-1" vertex="1">
          <mxGeometry x="520" y="200" width="40" height="40" as="geometry" />
        </mxCell>
        <mxCell id="yh3LMR_NNYSIdBTZSJ3h-24" value="" style="rounded=0;whiteSpace=wrap;html=1;strokeColor=#82b366;fillColor=#97D077;" parent="yh3LMR_NNYSIdBTZSJ3h-1" vertex="1">
          <mxGeometry x="520" y="120" width="120" height="40" as="geometry" />
        </mxCell>
        <mxCell id="yh3LMR_NNYSIdBTZSJ3h-27" value="" style="rounded=0;whiteSpace=wrap;html=1;fillColor=#e51400;strokeColor=#B20000;fontColor=#ffffff;" parent="yh3LMR_NNYSIdBTZSJ3h-1" vertex="1">
          <mxGeometry x="520" y="360" width="280" height="40" as="geometry" />
        </mxCell>
        <mxCell id="yh3LMR_NNYSIdBTZSJ3h-28" value="&lt;font style=&quot;font-size: 30px&quot;&gt;V&lt;/font&gt;" style="whiteSpace=wrap;html=1;aspect=fixed;" parent="yh3LMR_NNYSIdBTZSJ3h-1" vertex="1">
          <mxGeometry x="560" y="200" width="40" height="40" as="geometry" />
        </mxCell>
        <mxCell id="yh3LMR_NNYSIdBTZSJ3h-29" value="&lt;font style=&quot;font-size: 30px&quot;&gt;V&lt;/font&gt;" style="whiteSpace=wrap;html=1;aspect=fixed;" parent="yh3LMR_NNYSIdBTZSJ3h-1" vertex="1">
          <mxGeometry x="600" y="200" width="40" height="40" as="geometry" />
        </mxCell>
        <mxCell id="yh3LMR_NNYSIdBTZSJ3h-35" value="&lt;font style=&quot;font-size: 30px&quot;&gt;V&lt;/font&gt;" style="whiteSpace=wrap;html=1;aspect=fixed;" parent="yh3LMR_NNYSIdBTZSJ3h-1" vertex="1">
          <mxGeometry x="640" y="200" width="40" height="40" as="geometry" />
        </mxCell>
        <mxCell id="yh3LMR_NNYSIdBTZSJ3h-39" value="" style="rounded=0;whiteSpace=wrap;html=1;strokeColor=#82b366;fillColor=#97D077;" parent="yh3LMR_NNYSIdBTZSJ3h-1" vertex="1">
          <mxGeometry x="640" y="120" width="40" height="40" as="geometry" />
        </mxCell>
        <mxCell id="yh3LMR_NNYSIdBTZSJ3h-45" value="" style="rounded=0;whiteSpace=wrap;html=1;strokeColor=#82b366;fillColor=#97D077;" parent="yh3LMR_NNYSIdBTZSJ3h-1" vertex="1">
          <mxGeometry x="880" y="360" width="40" height="40" as="geometry" />
        </mxCell>
        <mxCell id="yh3LMR_NNYSIdBTZSJ3h-46" value="" style="whiteSpace=wrap;html=1;aspect=fixed;" parent="yh3LMR_NNYSIdBTZSJ3h-1" vertex="1">
          <mxGeometry x="720" y="240" width="40" height="40" as="geometry" />
        </mxCell>
        <mxCell id="yh3LMR_NNYSIdBTZSJ3h-47" value="" style="whiteSpace=wrap;html=1;aspect=fixed;" parent="yh3LMR_NNYSIdBTZSJ3h-1" vertex="1">
          <mxGeometry x="760" y="240" width="40" height="40" as="geometry" />
        </mxCell>
        <mxCell id="yh3LMR_NNYSIdBTZSJ3h-48" value="&lt;font style=&quot;font-size: 30px&quot;&gt;V&lt;/font&gt;" style="whiteSpace=wrap;html=1;aspect=fixed;" parent="yh3LMR_NNYSIdBTZSJ3h-1" vertex="1">
          <mxGeometry x="880" y="280" width="40" height="40" as="geometry" />
        </mxCell>
        <mxCell id="yh3LMR_NNYSIdBTZSJ3h-50" value="" style="endArrow=classic;html=1;exitX=0.5;exitY=1;exitDx=0;exitDy=0;entryX=0.5;entryY=0;entryDx=0;entryDy=0;" parent="yh3LMR_NNYSIdBTZSJ3h-1" source="yh3LMR_NNYSIdBTZSJ3h-7" target="yh3LMR_NNYSIdBTZSJ3h-17" edge="1">
          <mxGeometry width="50" height="50" relative="1" as="geometry">
            <mxPoint x="210" y="590" as="sourcePoint" />
            <mxPoint x="260" y="540" as="targetPoint" />
          </mxGeometry>
        </mxCell>
        <mxCell id="DAJnWWRiXqsbYn3FnPX8-0" value="" style="endArrow=classic;html=1;exitX=0.75;exitY=0;exitDx=0;exitDy=0;entryX=0.5;entryY=1;entryDx=0;entryDy=0;" edge="1" parent="yh3LMR_NNYSIdBTZSJ3h-1" source="yh3LMR_NNYSIdBTZSJ3h-18" target="yh3LMR_NNYSIdBTZSJ3h-21">
          <mxGeometry width="50" height="50" relative="1" as="geometry">
            <mxPoint x="560" y="440" as="sourcePoint" />
            <mxPoint x="610" y="390" as="targetPoint" />
          </mxGeometry>
        </mxCell>
        <mxCell id="JOh_HqATC-TCsiU0-dHM-0" value="&lt;font style=&quot;font-size: 30px&quot;&gt;V&lt;/font&gt;" style="whiteSpace=wrap;html=1;aspect=fixed;" vertex="1" parent="yh3LMR_NNYSIdBTZSJ3h-1">
          <mxGeometry x="680" y="200" width="40" height="40" as="geometry" />
        </mxCell>
        <mxCell id="JOh_HqATC-TCsiU0-dHM-4" value="" style="rounded=0;whiteSpace=wrap;html=1;strokeColor=#82b366;fillColor=#97D077;" vertex="1" parent="yh3LMR_NNYSIdBTZSJ3h-1">
          <mxGeometry x="680" y="120" width="40" height="40" as="geometry" />
        </mxCell>
        <mxCell id="JOh_HqATC-TCsiU0-dHM-6" value="" style="rounded=0;whiteSpace=wrap;html=1;fillColor=#d5e8d4;strokeColor=#82b366;" vertex="1" parent="yh3LMR_NNYSIdBTZSJ3h-1">
          <mxGeometry x="720" y="120" width="80" height="40" as="geometry" />
        </mxCell>
        <mxCell id="JOh_HqATC-TCsiU0-dHM-7" value="" style="whiteSpace=wrap;html=1;aspect=fixed;" vertex="1" parent="yh3LMR_NNYSIdBTZSJ3h-1">
          <mxGeometry x="800" y="240" width="40" height="40" as="geometry" />
        </mxCell>
        <mxCell id="JOh_HqATC-TCsiU0-dHM-8" value="" style="rounded=0;whiteSpace=wrap;html=1;fillColor=#d5e8d4;strokeColor=#82b366;" vertex="1" parent="yh3LMR_NNYSIdBTZSJ3h-1">
          <mxGeometry x="800" y="360" width="80" height="40" as="geometry" />
        </mxCell>
        <mxCell id="JOh_HqATC-TCsiU0-dHM-9" value="" style="whiteSpace=wrap;html=1;aspect=fixed;" vertex="1" parent="yh3LMR_NNYSIdBTZSJ3h-1">
          <mxGeometry x="840" y="240" width="40" height="40" as="geometry" />
        </mxCell>
        <mxCell id="JOh_HqATC-TCsiU0-dHM-10" value="" style="rounded=0;whiteSpace=wrap;html=1;fillColor=#fff2cc;strokeColor=#d6b656;" vertex="1" parent="yh3LMR_NNYSIdBTZSJ3h-1">
          <mxGeometry x="800" y="120" width="120" height="40" as="geometry" />
        </mxCell>
        <mxCell id="JOh_HqATC-TCsiU0-dHM-11" value="" style="endArrow=classic;html=1;exitX=0.75;exitY=0;exitDx=0;exitDy=0;entryX=0.5;entryY=1;entryDx=0;entryDy=0;" edge="1" parent="yh3LMR_NNYSIdBTZSJ3h-1" source="JOh_HqATC-TCsiU0-dHM-8" target="JOh_HqATC-TCsiU0-dHM-9">
          <mxGeometry width="50" height="50" relative="1" as="geometry">
            <mxPoint x="440" y="260" as="sourcePoint" />
            <mxPoint x="490" y="210" as="targetPoint" />
          </mxGeometry>
        </mxCell>
        <mxCell id="AjKmlMG_dV8qZQKT6oqJ-0" value="" style="endArrow=none;dashed=1;html=1;dashPattern=1 3;strokeWidth=2;" edge="1" parent="yh3LMR_NNYSIdBTZSJ3h-1">
          <mxGeometry width="50" height="50" relative="1" as="geometry">
            <mxPoint x="200" y="440" as="sourcePoint" />
            <mxPoint x="200" y="80" as="targetPoint" />
          </mxGeometry>
        </mxCell>
        <mxCell id="AjKmlMG_dV8qZQKT6oqJ-1" value="" style="endArrow=none;dashed=1;html=1;dashPattern=1 3;strokeWidth=2;" edge="1" parent="yh3LMR_NNYSIdBTZSJ3h-1">
          <mxGeometry width="50" height="50" relative="1" as="geometry">
            <mxPoint x="320" y="440" as="sourcePoint" />
            <mxPoint x="320" y="80" as="targetPoint" />
          </mxGeometry>
        </mxCell>
        <mxCell id="AjKmlMG_dV8qZQKT6oqJ-2" value="" style="endArrow=none;dashed=1;html=1;dashPattern=1 3;strokeWidth=2;" edge="1" parent="yh3LMR_NNYSIdBTZSJ3h-1">
          <mxGeometry width="50" height="50" relative="1" as="geometry">
            <mxPoint x="439" y="440" as="sourcePoint" />
            <mxPoint x="439" y="80" as="targetPoint" />
          </mxGeometry>
        </mxCell>
        <mxCell id="AjKmlMG_dV8qZQKT6oqJ-3" value="" style="endArrow=none;dashed=1;html=1;dashPattern=1 3;strokeWidth=2;" edge="1" parent="yh3LMR_NNYSIdBTZSJ3h-1">
          <mxGeometry width="50" height="50" relative="1" as="geometry">
            <mxPoint x="520" y="440" as="sourcePoint" />
            <mxPoint x="520" y="80" as="targetPoint" />
          </mxGeometry>
        </mxCell>
        <mxCell id="AjKmlMG_dV8qZQKT6oqJ-4" value="" style="endArrow=none;dashed=1;html=1;dashPattern=1 3;strokeWidth=2;" edge="1" parent="yh3LMR_NNYSIdBTZSJ3h-1">
          <mxGeometry width="50" height="50" relative="1" as="geometry">
            <mxPoint x="800" y="440" as="sourcePoint" />
            <mxPoint x="800" y="80" as="targetPoint" />
          </mxGeometry>
        </mxCell>
      </root>
    </mxGraphModel>
  </diagram>
</mxfile>
